<svg width="38" height="41" viewBox="0 0 38 41" fill="none" xmlns="http://www.w3.org/2000/svg">
<path d="M14.7684 17.0881L13.1461 17.1296L11.3084 15.1273L10.8774 20.7238L13.8361 23.1448L15.7422 19.6439L14.7684 17.0881Z" fill="white"/>
<path d="M22.797 15.0734L26.0001 14.5262L25.2087 10.7744L22.5339 8.56479L18.7692 9.57217L15.0046 8.56479L12.3298 10.7744L11.5383 14.5262L14.7415 15.0734L16.3638 19.5548L14.8016 22.6785L18.7692 23.804L22.7369 22.6785L21.1747 19.5548L22.797 15.0734ZM22.4738 13.6452L22.6747 13.7157L22.2086 14.8309L21.8543 14.2318L22.4738 13.6452ZM15.3299 14.8309L14.8637 13.7157L15.0647 13.6452L15.6842 14.2318L15.3299 14.8309Z" fill="white"/>
<path d="M32.4126 11.9124L37.497 10.3018L29.9553 5.76444L23.0062 4.0689L24.7446 1.48412L27.2868 0.424923L25.4635 0H12.075L10.2517 0.424923L12.7939 1.48412L14.5322 4.0689L7.58311 5.76444L0.0414371 10.3018L5.12585 11.9124L0 22.0006L5.33718 21.4493L6.56581 33.1046L18.7692 40.0153L30.9726 33.1046L32.2013 21.4493L37.5385 22.0006L32.4126 11.9124ZM21.2845 32.945L18.7692 33.6684L16.254 32.945L14.7808 30.9033L15.5247 31.2557L17.9177 30.9033L18.7692 29.6244L19.6208 30.9033L22.0138 31.2557L22.7576 30.9033L21.2845 32.945ZM24.958 24.6518L21.9869 25.7814L25.2563 25.2985L25.7619 26.3991L22.5546 26.994L25.652 27.0976L25.4594 28.1403L23.2694 28.1962L25.1403 28.559L24.297 29.5933L21.9662 30.0597L20.6692 29.7342L19.513 28.3144L19.3721 26.084L22.7369 23.8143L19.4944 24.117L18.7692 25.3482L18.0441 24.117L14.8016 23.8143L18.1663 26.084L18.0254 28.3144L16.8693 29.7342L15.5723 30.0597L13.2414 29.5933L12.3982 28.559L14.2691 28.1962L12.0791 28.1403L11.8864 27.0976L14.9839 26.994L11.7766 26.3991L12.2821 25.2985L15.5516 25.7814L12.5805 24.6518L12.7815 24.2123L9.37736 21.184L9.99893 14.7231L11.0245 10.4241L14.3499 7.53046L18.7692 8.11914L23.1886 7.53046L26.5139 10.4241L27.5395 14.7231L28.1611 21.184L24.757 24.2123L24.958 24.6518Z" fill="white"/>
<path d="M9.14944 4.85448L8.7102 2.25105L9.06242 2.06035L12.1475 4.09376L13.6827 3.78699L9.38356 0.65707L7.57066 1.02188L7.61417 5.16125L9.14944 4.85448Z" fill="white"/>
<path d="M24.3923 17.1296L22.7701 17.0881L21.7963 19.6439L23.7024 23.1448L26.6611 20.7238L26.2301 15.1273L24.3923 17.1296Z" fill="white"/>
<path d="M25.391 4.09376L28.476 2.06035L28.8282 2.25105L28.389 4.85448L29.9243 5.16125L29.9678 1.02188L28.1549 0.65707L23.8557 3.78699L25.391 4.09376Z" fill="white"/>
</svg>
