<svg width="26" height="26" viewBox="0 0 26 26" fill="none" xmlns="http://www.w3.org/2000/svg">
<path d="M0.57736 21.1L0.10536 24.4C0.0761897 24.6049 0.0950869 24.8137 0.160556 25.0099C0.226025 25.2062 0.336269 25.3845 0.482565 25.5308C0.628862 25.6771 0.807198 25.7874 1.00346 25.8528C1.19972 25.9183 1.40853 25.9372 1.61336 25.908L4.91336 25.436C5.41336 25.3654 6.66669 22 6.66669 22C6.66669 22 7.29603 22.54 7.55336 22.6214C8.10269 22.7947 8.63736 22.256 8.81736 21.7094L9.33336 19.3467C9.33336 19.3467 10.1027 19.736 10.3814 19.7934C10.736 19.8667 11.08 19.648 11.324 19.4027C11.4706 19.2566 11.5807 19.078 11.6454 18.8814L12 16.68C12 16.68 12.9 16.9294 13.208 16.9654C13.5587 17.0054 13.9 16.8267 14.1507 16.5747L15.668 15.0587C16.9524 15.4749 18.3268 15.5286 19.6397 15.2138C20.9527 14.899 22.1533 14.228 23.1094 13.2747C24.4823 11.8982 25.2533 10.0335 25.2533 8.08937C25.2533 6.14527 24.4823 4.28051 23.1094 2.90404C21.7329 1.53113 19.8681 0.760132 17.924 0.760132C15.9799 0.760132 14.1152 1.53113 12.7387 2.90404C11.7851 3.85994 11.1139 5.06055 10.7991 6.37357C10.4844 7.68658 10.5382 9.061 10.9547 10.3454L0.953359 20.3454C0.749217 20.5493 0.617201 20.8143 0.57736 21.1ZM20.672 5.34137C21.3994 6.07093 21.8079 7.05914 21.8079 8.08937C21.8079 9.11961 21.3994 10.1078 20.672 10.8374L15.176 5.34137C15.9056 4.61396 16.8938 4.20549 17.924 4.20549C18.9543 4.20549 19.9425 4.61396 20.672 5.34137Z" fill="#EEEEEE"/>
</svg>
