<svg width="21" height="20" viewBox="0 0 21 20" fill="none" xmlns="http://www.w3.org/2000/svg">
<path d="M4.08099 5.19854L5.66423 4.72061C5.78899 4.68299 5.92005 4.66997 6.04991 4.68229C6.17978 4.69461 6.30591 4.73204 6.42111 4.79242C6.5363 4.85281 6.63831 4.93498 6.7213 5.03423C6.80429 5.13349 6.86665 5.2479 6.9048 5.37091C6.94295 5.49393 6.95616 5.62316 6.94366 5.75121C6.93116 5.87926 6.89321 6.00363 6.83197 6.11722C6.77073 6.2308 6.6874 6.33139 6.58673 6.41322C6.48607 6.49505 6.37004 6.55653 6.24528 6.59415L2.4461 7.74002C2.32128 7.77765 2.19015 7.79065 2.06023 7.77828C1.9303 7.76591 1.80413 7.72841 1.68891 7.66792C1.5737 7.60743 1.4717 7.52515 1.38876 7.42577C1.30582 7.32638 1.24356 7.21186 1.20553 7.08874L0.0434291 3.34263C0.00527678 3.21961 -0.0079284 3.09039 0.00456757 2.96234C0.0170635 2.83429 0.055016 2.70992 0.116258 2.59633C0.239942 2.36693 0.45098 2.19537 0.702947 2.11939C0.954914 2.04342 1.22717 2.06925 1.45982 2.1912C1.57502 2.25159 1.67703 2.33376 1.76002 2.43302C1.84301 2.53227 1.90536 2.64668 1.94352 2.7697L2.38055 4.18098C4.77229 0.548478 9.51705 -1.01362 13.7294 0.688529C14.9892 1.19767 16.1204 1.97282 17.0437 2.95946C17.9669 3.94609 18.6596 5.12023 19.0731 6.39926C19.1155 6.52247 19.1326 6.65277 19.1233 6.78255C19.1141 6.91234 19.0787 7.039 19.0192 7.15516C18.9598 7.27131 18.8774 7.37461 18.777 7.45904C18.6766 7.54347 18.5602 7.60733 18.4345 7.64688C18.3088 7.68644 18.1764 7.70091 18.0449 7.68944C17.9135 7.67797 17.7857 7.64079 17.669 7.58007C17.5523 7.51936 17.449 7.43632 17.3652 7.33582C17.2814 7.23532 17.2188 7.11936 17.181 6.99472C16.7613 5.69545 15.9776 4.53971 14.9202 3.66093C13.8628 2.78215 12.5749 2.21618 11.2052 2.02836C9.83555 1.84054 8.43991 2.03854 7.17948 2.59949C5.91904 3.16045 4.84422 4.06148 4.08099 5.19854ZM16.2813 14.7763L14.5183 15.2101C14.3906 15.2447 14.2572 15.2537 14.126 15.2366C13.9948 15.2196 13.8683 15.1769 13.754 15.111C13.6398 15.0451 13.54 14.9573 13.4607 14.8529C13.3813 14.7484 13.3239 14.6293 13.2919 14.5027C13.2598 14.3761 13.2538 14.2444 13.2741 14.1154C13.2944 13.9864 13.3406 13.8628 13.4101 13.7517C13.4796 13.6406 13.5709 13.5443 13.6786 13.4684C13.7864 13.3926 13.9084 13.3388 14.0375 13.3102L17.6559 12.4199C17.8445 12.3315 18.0565 12.304 18.2618 12.3416C18.4596 12.3672 18.645 12.451 18.7938 12.582C18.9426 12.713 19.048 12.8852 19.0962 13.0761L20.0576 16.8761C20.1146 17.1256 20.0702 17.3873 19.9341 17.605C19.7979 17.8228 19.5808 17.9794 19.329 18.0413C19.0773 18.1032 18.811 18.0656 18.5871 17.9364C18.3631 17.8072 18.1993 17.5968 18.1307 17.3501L17.8029 16.0553C16.8466 17.4123 15.5368 18.4899 14.0115 19.1745C12.4862 19.8591 10.8019 20.1254 9.13601 19.9453C7.47012 19.7652 5.88431 19.1455 4.54565 18.1513C3.20699 17.1572 2.16503 15.8254 1.52954 14.2964L1.2713 13.6755C1.17146 13.4351 1.17256 13.1654 1.27435 12.9258C1.37615 12.6862 1.57031 12.4963 1.81411 12.3979C2.05791 12.2994 2.33138 12.3005 2.57437 12.4009C2.81736 12.5013 3.00996 12.6927 3.1098 12.9331L3.36805 13.553C3.87435 14.7712 4.70843 15.8299 5.78026 16.6149C6.8521 17.3999 8.12099 17.8814 9.45002 18.0074C10.779 18.1334 12.1177 17.8991 13.3216 17.3298C14.5255 16.7606 15.5489 15.877 16.2813 14.7763Z" fill="#D0D9DE"/>
</svg>
