<svg width="64" height="40" viewBox="0 0 64 40" fill="none" xmlns="http://www.w3.org/2000/svg">
<path d="M20 5H50V7H20V5Z" fill="#478ECC"/>
<path d="M14 32H50V34H14V32Z" fill="#478ECC"/>
<path d="M14 10H50V16H14V10Z" fill="#478ECC"/>
<path d="M14 19H27V29H14V19Z" fill="#478ECC"/>
<path d="M30 19H50V21H30V19Z" fill="#478ECC"/>
<path d="M30 23H50V25H30V23Z" fill="#478ECC"/>
<path d="M30 27H50V29H30V27Z" fill="#478ECC"/>
<path d="M14 5H17V7H14V5Z" fill="#478ECC"/>
<path fill-rule="evenodd" clip-rule="evenodd" d="M53.815 0H13.794H10.1645C9.52279 0 8.90734 0.255436 8.45357 0.710116C7.9998 1.1648 7.74487 1.78148 7.74487 2.42449L7.74487 36.5959C7.74487 37.2389 7.9998 37.8556 8.45357 38.3103C8.90734 38.765 9.52279 39.0204 10.1645 39.0204H53.815C54.4567 39.0204 55.0722 38.765 55.526 38.3103C55.9797 37.8556 56.2347 37.2389 56.2347 36.5959V2.42449C56.2347 1.78148 55.9797 1.1648 55.526 0.710116C55.0722 0.255436 54.4567 0 53.815 0ZM9.76528 37H54.2143V2.02041H41.4183H28.6224H9.76528V37Z" fill="#478ECC"/>
<path fill-rule="evenodd" clip-rule="evenodd" d="M7.74485 5H5.98803H2.39522C1.75997 5 1.15074 5.30343 0.701551 5.84353C0.252362 6.38364 1.01725e-05 7.11618 1.01725e-05 7.88L0 30.12C0 30.8838 0.252352 31.6164 0.70154 32.1565C1.15073 32.6966 1.75996 33 2.39521 33H7.74485V30.6H2L2.00001 7.4H7.74485V5Z" fill="#478ECC"/>
<path fill-rule="evenodd" clip-rule="evenodd" d="M56.2348 5H57.8872H61.5549C62.2034 5 62.8253 5.30343 63.2838 5.84353C63.7424 6.38364 64 7.11618 64 7.88L64 30.12C64 30.8838 63.7424 31.6164 63.2838 32.1565C62.8253 32.6966 62.2034 33 61.5549 33H56.2348V30.6H61.9583L61.9583 7.4H56.2348V5Z" fill="#478ECC"/>
</svg>
