<svg width="259" height="551" viewBox="0 0 259 551" fill="none" xmlns="http://www.w3.org/2000/svg">
<g opacity="0.1">
<path d="M55.696 207.325L99.7532 199.798L88.8671 148.195L52.0769 117.803L0.296898 131.659L-51.4831 117.803L-88.2734 148.195L-99.1595 199.798L-55.1023 207.325L-32.7887 268.963L-54.2759 311.928L0.296898 327.409L54.8696 311.928L33.3825 268.963L55.696 207.325ZM51.2504 187.681L54.0147 188.651L47.6028 203.989L42.7297 195.75L51.2504 187.681ZM-47.009 203.989L-53.4209 188.651L-50.6567 187.681L-42.1359 195.75L-47.009 203.989Z" fill="#96C8ED"/>
<path d="M187.953 163.847L257.886 141.695L154.155 79.2863L58.5741 55.9651L82.4835 20.4131L117.45 5.84455L92.3722 0H-91.7787L-116.857 5.84455L-81.8901 20.4131L-57.9807 55.9651L-153.561 79.2863L-257.292 141.695L-187.359 163.847L-257.862 302.605L-184.453 295.021L-167.554 455.333L0.296753 550.385L168.147 455.333L185.046 295.021L258.456 302.605L187.953 163.847ZM34.8927 453.138L0.296753 463.088L-34.2992 453.138L-54.5609 425.055L-44.3304 429.902L-11.4157 425.055L0.296753 407.465L12.0092 425.055L44.9238 429.902L55.1544 425.055L34.8927 453.138ZM85.4188 339.069L44.5534 354.607L89.5224 347.964L96.4758 363.103L52.3616 371.286L94.9654 372.711L92.3152 387.052L62.1933 387.821L87.9266 392.811L76.3281 407.037L44.2684 413.452L26.429 408.976L10.5273 389.446L8.58948 358.77L54.8694 327.551L10.2709 331.714L0.296753 348.649L-9.67738 331.714L-54.276 327.551L-7.99603 358.77L-9.93388 389.446L-25.8355 408.976L-43.6749 413.452L-75.7346 407.037L-87.3331 392.811L-61.5998 387.821L-91.7217 387.052L-94.3719 372.711L-51.7682 371.286L-95.8823 363.103L-88.929 347.964L-43.9599 354.607L-84.8253 339.069L-82.0611 333.025L-128.882 291.372L-120.333 202.506L-106.227 143.377L-60.4884 103.577L0.296753 111.674L61.0819 103.577L106.82 143.377L120.927 202.506L129.476 291.372L82.6545 333.025L85.4188 339.069Z" fill="#96C8ED"/>
<path d="M77.6391 235.607L55.3255 235.036L41.9317 270.189L68.1494 318.343L108.844 285.043L102.916 208.066L77.6391 235.607Z" fill="#96C8ED"/>
<path d="M91.3746 56.3072L133.807 28.3389L138.652 30.9619L132.61 66.7704L153.727 70.9899L154.326 14.0554L129.39 9.03769L70.2579 52.0878L91.3746 56.3072Z" fill="#96C8ED"/>
</g>
</svg>
