<svg width="11" height="11" viewBox="0 0 11 11" fill="none" xmlns="http://www.w3.org/2000/svg">
<path fill-rule="evenodd" clip-rule="evenodd" d="M10 0H0.857143C0.629814 0 0.411797 0.0903058 0.251051 0.251051C0.0903058 0.411797 0 0.629814 0 0.857143V9.85714C0 10.0845 0.0903058 10.3025 0.251051 10.4632C0.411797 10.624 0.629814 10.7143 0.857143 10.7143H10C10.2273 10.7143 10.4453 10.624 10.6061 10.4632C10.7668 10.3025 10.8571 10.0845 10.8571 9.85714V0.857143C10.8571 0.629814 10.7668 0.411797 10.6061 0.251051C10.4453 0.0903058 10.2273 0 10 0ZM0.857143 9.85714H10V0.857143H0.857143V9.85714Z" fill="#D0D9DE"/>
<rect x="2" y="1.71429" width="2" height="1" fill="#D0D9DE"/>
<rect x="5" y="1.71429" width="4" height="1" fill="#D0D9DE"/>
<rect x="2" y="3.71429" width="7" height="3" fill="#D0D9DE"/>
<rect x="2" y="7.71429" width="7" height="1" fill="#D0D9DE"/>
</svg>
