<svg width="58" height="40" viewBox="0 0 58 40" fill="none" xmlns="http://www.w3.org/2000/svg">
<path d="M12 5H42V7H12V5Z" fill="#478ECC"/>
<path d="M6 10H42V12L38 16H6V10Z" fill="#478ECC"/>
<path d="M6 5H9V7H6V5Z" fill="#478ECC"/>
<path d="M5.794 0H46C46.6417 0 47.0462 0.04532 47.5 0.5C47.9538 0.95468 48 1.35699 48 2V9.10321H46V2L33.4183 2.02041H20.6224L2 2V37H46V30.9441H48V37C48 37.643 47.9538 38.0453 47.5 38.5C47.0462 38.9547 46.6417 39.0204 46 39.0204H2C1.35827 39.0204 0.953772 38.9547 0.5 38.5C0.0462275 38.0453 0 37.643 0 37V2C0 1.35699 0.0462275 0.95468 0.5 0.5C0.953772 0.04532 1.35827 0 2 0H5.794Z" fill="#478ECC"/>
<path d="M47 9C40.9254 9 36 13.9254 36 20C36 26.0746 40.9254 31 47 31C53.0746 31 58 26.0746 58 20C58 13.9254 53.0746 9 47 9ZM47 29.1339C41.9567 29.1339 37.8661 25.0433 37.8661 20C37.8661 14.9567 41.9567 10.8661 47 10.8661C52.0433 10.8661 56.1339 14.9567 56.1339 20C56.1339 25.0433 52.0433 29.1339 47 29.1339Z" fill="#478ECC"/>
<path d="M53.2551 16.8818C53.2555 16.8094 53.2417 16.7377 53.2143 16.6707C53.1869 16.6037 53.1466 16.5427 53.0956 16.4913L50.7636 14.1595C50.7122 14.1085 50.6513 14.0682 50.5843 14.0408C50.5173 14.0135 50.4455 13.9996 50.3731 14C50.3007 13.9996 50.229 14.0135 50.162 14.0408C50.095 14.0682 50.034 14.1085 49.9826 14.1595L48.4261 15.7159L42.4146 21.7269C42.3637 21.7783 42.3233 21.8393 42.296 21.9063C42.2686 21.9733 42.2547 22.045 42.2551 22.1174V24.4492C42.2551 24.5951 42.3131 24.735 42.4162 24.8381C42.5194 24.9412 42.6593 24.9992 42.8051 24.9992H45.1371C45.2141 25.0034 45.2911 24.9913 45.3631 24.9639C45.4351 24.9364 45.5005 24.8941 45.5551 24.8397L51.5336 18.8286L53.0956 17.2998C53.1458 17.2465 53.1867 17.1851 53.2166 17.1183C53.2219 17.0744 53.2219 17.0301 53.2166 16.9863C53.2192 16.9607 53.2192 16.9349 53.2166 16.9093L53.2551 16.8818ZM44.9116 23.8993H43.3551V22.3429L48.8166 16.8818L50.3731 18.4382L44.9116 23.8993ZM51.1486 17.6627L49.5921 16.1064L50.3731 15.3309L51.9241 16.8818L51.1486 17.6627Z" fill="#478ECC"/>
</svg>
