<svg width="30" height="30" viewBox="0 0 30 30" fill="none" xmlns="http://www.w3.org/2000/svg">
<circle cx="15" cy="15" r="14.625" stroke="#B0BFC6" stroke-width="0.75"/>
<path d="M12.9527 18.1351C13.1563 18.0947 13.3571 18.0617 13.4742 18.0465C13.8758 17.9895 14.2858 17.9581 14.7031 17.9581C15.0616 17.9581 15.4142 17.9825 15.7614 18.0248C15.9515 18.0472 16.1214 18.0763 16.2311 18.0953C20.3026 18.8202 23.4044 22.3841 23.4044 26.661C23.4044 26.8482 23.2528 27.0001 23.0654 27.0001H6.33899C6.15161 27.0001 5.99995 26.8482 5.99995 26.661C5.99995 22.4618 8.9899 18.9475 12.9527 18.1351ZM13.5874 18.7151V20.4452H15.6217V18.6907C15.3199 18.6561 15.0139 18.6362 14.7031 18.6362C14.3243 18.6365 13.9522 18.6643 13.5874 18.7151ZM14.2775 21.1235L13.5275 26.3222H15.9029L15.1529 21.1235H14.2775ZM16.2998 18.7965V20.7842C16.2998 20.9714 16.1481 21.1233 15.9607 21.1233H15.838L16.588 26.322H22.7193C22.5634 22.5954 19.8541 19.5175 16.2998 18.7965ZM12.8422 26.3222L13.5921 21.1235H13.2483C13.061 21.1235 12.9093 20.9716 12.9093 20.7844V18.841C9.45168 19.6339 6.83807 22.6648 6.68505 26.3222H12.8422Z" fill="#B0BFC6"/>
<path d="M14.8491 16.9927C12.0934 16.9927 9.85112 14.7513 9.85112 11.9964C9.85112 9.24133 12.0931 7 14.8491 7C17.6042 7 19.8456 9.24133 19.8456 11.9964C19.8456 14.7513 17.6042 16.9927 14.8491 16.9927ZM14.8491 7.67787C12.4672 7.67787 10.5292 9.61497 10.5292 11.9962C10.5292 14.3772 12.4672 16.3143 14.8491 16.3143C17.2304 16.3143 19.1675 14.3772 19.1675 11.9962C19.1675 9.61519 17.2304 7.67787 14.8491 7.67787Z" fill="#B0BFC6"/>
<path d="M15.9268 12.5342C15.5365 12.5342 15.2178 12.2361 15.1775 11.8561H14.4834C14.4432 12.2361 14.1247 12.5342 13.7341 12.5342H12.0841C11.6666 12.5342 11.3269 12.1945 11.3269 11.7768V11.0309C11.3269 10.6134 11.6666 10.2737 12.0841 10.2737H13.7341C14.1516 10.2737 14.4913 10.6134 14.4913 11.0309V11.1778H15.1694V11.0309C15.1694 10.6134 15.5091 10.2737 15.9266 10.2737H17.5767C17.9941 10.2737 18.3339 10.6134 18.3339 11.0309V11.7768C18.3339 12.1945 17.9941 12.5342 17.5767 12.5342H15.9268ZM13.8134 11.0309C13.8134 10.9875 13.778 10.9518 13.7343 10.9518H12.0843C12.0407 10.9518 12.0052 10.9873 12.0052 11.0309V11.7768C12.0052 11.8204 12.0407 11.8561 12.0843 11.8561H13.7343C13.778 11.8561 13.8134 11.8206 13.8134 11.7768V11.0309ZM17.656 11.7768V11.0309C17.656 10.9875 17.6205 10.9518 17.5769 10.9518H15.9268C15.8832 10.9518 15.8477 10.9873 15.8477 11.0309V11.7768C15.8477 11.8204 15.8832 11.8561 15.9268 11.8561H17.5769C17.6205 11.8561 17.656 11.8206 17.656 11.7768Z" fill="#B0BFC6"/>
</svg>
