<svg width="10" height="12" viewBox="0 0 10 12" fill="none" xmlns="http://www.w3.org/2000/svg">
<path fill-rule="evenodd" clip-rule="evenodd" d="M7.28571 1.28571H8.57143C8.79876 1.28571 9.01677 1.37602 9.17752 1.53677C9.33826 1.69751 9.42857 1.91553 9.42857 2.14286V11.1429C9.42857 11.3702 9.33826 11.5882 9.17752 11.7489C9.01677 11.9097 8.79876 12 8.57143 12H0.857143C0.629814 12 0.411797 11.9097 0.251051 11.7489C0.0903058 11.5882 0 11.3702 0 11.1429V2.14286C0 1.91553 0.0903058 1.69751 0.251051 1.53677C0.411797 1.37602 0.629814 1.28571 0.857143 1.28571H2.14286V0.857143C2.14286 0.629814 2.23316 0.411797 2.39391 0.251051C2.55465 0.0903058 2.77267 0 3 0H6.42857C6.6559 0 6.87392 0.0903058 7.03466 0.251051C7.19541 0.411797 7.28571 0.629814 7.28571 0.857143V1.28571ZM6.42857 0.857143H3V2.57143H6.42857V0.857143ZM0.857143 11.1429H8.57143V2.14286H7.28571V3.42857H2.14286V2.14286H0.857143V11.1429ZM7.28578 4.71429H2.14292V5.57143H7.28578V4.71429ZM5.57149 6.85713H2.14292V7.71428H5.57149V6.85713ZM2.14292 9H4.28578V9.85714H2.14292V9Z" fill="#D0D9DE"/>
</svg>
