<svg width="30" height="30" viewBox="0 0 30 30" fill="none" xmlns="http://www.w3.org/2000/svg">
<circle cx="15" cy="15" r="14.625" stroke="#B0BFC6" stroke-width="0.75"/>
<path d="M15.4543 18.1671C20.116 18.1671 23.9086 21.9597 23.9086 26.6214C23.9086 26.8303 23.7392 26.9999 23.53 26.9999L19.5 29L15.3481 29.6538L10.5 29L7.5 27.5C7.29104 27.5 7.00005 26.8303 7.00005 26.6214C7.00005 21.9597 10.7926 18.1671 15.4543 18.1671ZM12.4489 19.5372L15.3481 21.6765L18.4474 19.5317C17.5267 19.1415 16.5158 18.9242 15.4543 18.9242C14.3883 18.9242 13.373 19.1435 12.4489 19.5372ZM23.1421 26.2428C23.0099 23.5259 21.4614 21.1761 19.2219 19.9132C19.2153 19.9185 19.2098 19.9246 19.2027 19.9296L15.5563 22.4533C15.4914 22.4982 15.4162 22.5207 15.3407 22.5207C15.2618 22.5207 15.1828 22.4959 15.1159 22.4467L11.6961 19.9231C11.6923 19.9203 11.6895 19.9168 11.6857 19.9137C9.44649 21.1766 7.89822 23.5264 7.76598 26.2431V27.633L10.5428 29.0058L15.3481 29.5L20 28.7519L23.1421 26.9999V26.2428Z" fill="#B0BFC6"/>
<path d="M15.4548 17.0946C12.6714 17.0946 10.4069 14.8304 10.4069 12.0473C10.4069 9.26423 12.6714 7 15.4548 7C18.2376 7 20.5016 9.26423 20.5016 12.0473C20.5016 14.8304 18.2376 17.0946 15.4548 17.0946ZM15.4548 7.7571C13.666 7.7571 12.1309 8.85817 11.4878 10.4173C11.6905 10.3065 11.928 10.1647 12.1511 10.0314C13.1131 9.45602 13.7324 9.11003 14.1707 9.14814C15.0126 9.22082 15.5444 9.55899 16.0587 9.88631C16.3514 10.0726 16.654 10.2649 17.0316 10.4236L17.1328 10.466C17.9938 10.8284 18.5276 11.0517 19.6496 11.1539C19.2372 9.21602 17.5138 7.7571 15.4548 7.7571ZM19.7382 11.9209C19.7304 11.9206 19.7223 11.9206 19.7145 11.9199C18.3835 11.8134 17.7692 11.555 16.8393 11.1638L16.7383 11.1214C16.3017 10.9379 15.9565 10.7184 15.6521 10.5248C15.155 10.2086 14.7625 9.95899 14.1054 9.90221C13.8621 9.88126 13.004 10.4032 12.5394 10.681C11.927 11.0472 11.5373 11.2751 11.2526 11.3437C11.2438 11.3457 11.235 11.346 11.2261 11.3473C11.1885 11.5756 11.1638 11.8083 11.1638 12.0471C11.1638 14.4127 13.0886 16.3373 15.4545 16.3373C17.8199 16.3373 19.7442 14.4127 19.7442 12.0471C19.7445 12.0047 19.7394 11.9633 19.7382 11.9209Z" fill="#B0BFC6"/>
</svg>
