<svg width="10" height="11" viewBox="0 0 10 11" fill="none" xmlns="http://www.w3.org/2000/svg">
<path d="M7.27121 5.80804C7.33817 5.73549 7.33817 5.62388 7.27121 5.55692L7.01451 5.30022C6.94754 5.23326 6.83594 5.23326 6.76339 5.30022L4.28571 7.7779L3.05804 6.55022C2.98549 6.48326 2.87388 6.48326 2.80692 6.55022L2.55022 6.80692C2.48326 6.87388 2.48326 6.98549 2.55022 7.05804L4.15737 8.66518C4.22991 8.73214 4.34152 8.73214 4.41406 8.66518L7.27121 5.80804ZM0.714286 9.71429V4H8.57143V9.71429H0.714286ZM2.85714 2.92857C2.85714 3.02902 2.77902 3.10714 2.67857 3.10714H2.32143C2.22098 3.10714 2.14286 3.02902 2.14286 2.92857V1.32143C2.14286 1.22098 2.22098 1.14286 2.32143 1.14286H2.67857C2.77902 1.14286 2.85714 1.22098 2.85714 1.32143V2.92857ZM7.14286 2.92857C7.14286 3.02902 7.06473 3.10714 6.96429 3.10714H6.60714C6.5067 3.10714 6.42857 3.02902 6.42857 2.92857V1.32143C6.42857 1.22098 6.5067 1.14286 6.60714 1.14286H6.96429C7.06473 1.14286 7.14286 1.22098 7.14286 1.32143V2.92857ZM9.28571 2.57143C9.28571 2.1808 8.96205 1.85714 8.57143 1.85714H7.85714V1.32143C7.85714 0.830357 7.45536 0.428571 6.96429 0.428571H6.60714C6.11607 0.428571 5.71429 0.830357 5.71429 1.32143V1.85714H3.57143V1.32143C3.57143 0.830357 3.16964 0.428571 2.67857 0.428571H2.32143C1.83036 0.428571 1.42857 0.830357 1.42857 1.32143V1.85714H0.714286C0.323661 1.85714 0 2.1808 0 2.57143V9.71429C0 10.1049 0.323661 10.4286 0.714286 10.4286H8.57143C8.96205 10.4286 9.28571 10.1049 9.28571 9.71429V2.57143Z" fill="#F09A9B"/>
</svg>
