<svg width="58" height="40" viewBox="0 0 58 40" fill="none" xmlns="http://www.w3.org/2000/svg">
<path d="M6 32H42V34H6V32Z" fill="#478ECC"/>
<path d="M6 19H19V29H6V19Z" fill="#478ECC"/>
<path d="M22 19H37V21H22V19Z" fill="#478ECC"/>
<path d="M22 23H38V25H22V23Z" fill="#478ECC"/>
<path d="M22 27H41V29H22V27Z" fill="#478ECC"/>
<path d="M12 5H42V7H12V5Z" fill="#478ECC"/>
<path d="M6 10H42V12L38 16H6V10Z" fill="#478ECC"/>
<path d="M6 5H9V7H6V5Z" fill="#478ECC"/>
<path d="M5.794 0H46C46.6417 0 47.0462 0.04532 47.5 0.5C47.9538 0.95468 48 1.35699 48 2V9.10321H46V2L33.4183 2.02041H20.6224L2 2V37H46V30.9441H48V37C48 37.643 47.9538 38.0453 47.5 38.5C47.0462 38.9547 46.6417 39.0204 46 39.0204H2C1.35827 39.0204 0.953772 38.9547 0.5 38.5C0.0462275 38.0453 0 37.643 0 37V2C0 1.35699 0.0462275 0.95468 0.5 0.5C0.953772 0.04532 1.35827 0 2 0H5.794Z" fill="#478ECC"/>
<path d="M51.2358 16.0714H50.1019C49.8553 16.0714 49.6208 16.1925 49.4757 16.4L45.6751 21.7867L43.9538 19.3454C43.8087 19.1403 43.5766 19.0168 43.3276 19.0168H42.1937C42.0366 19.0168 41.9447 19.1996 42.0366 19.3306L45.049 23.6004C45.1201 23.7019 45.214 23.7847 45.3226 23.8417C45.4313 23.8988 45.5518 23.9286 45.6739 23.9286C45.7961 23.9286 45.9166 23.8988 46.0252 23.8417C46.1339 23.7847 46.2277 23.7019 46.2989 23.6004L51.3905 16.3852C51.4848 16.2543 51.3929 16.0714 51.2358 16.0714Z" fill="#478ECC"/>
<path d="M47 9C40.9254 9 36 13.9254 36 20C36 26.0746 40.9254 31 47 31C53.0746 31 58 26.0746 58 20C58 13.9254 53.0746 9 47 9ZM47 29.1339C41.9567 29.1339 37.8661 25.0433 37.8661 20C37.8661 14.9567 41.9567 10.8661 47 10.8661C52.0433 10.8661 56.1339 14.9567 56.1339 20C56.1339 25.0433 52.0433 29.1339 47 29.1339Z" fill="#478ECC"/>
</svg>
