<svg width="30" height="30" viewBox="0 0 30 30" fill="none" xmlns="http://www.w3.org/2000/svg">
<circle cx="15" cy="15" r="14.625" stroke="#B0BFC6" stroke-width="0.75"/>
<path d="M15.4951 17.7615C19.8555 17.7615 23.4027 21.3096 23.4027 25.6704C23.4027 25.8524 23.2552 26.0001 23.073 26.0001H7.91607C7.73387 26.0001 7.5864 25.8524 7.5864 25.6704C7.5864 21.3096 11.1343 17.7615 15.4951 17.7615ZM22.7361 25.3407C22.5632 21.4957 19.3814 18.4208 15.4951 18.4208C11.6083 18.4208 8.42617 21.4957 8.25321 25.3407H22.7361Z" fill="#B0BFC6"/>
<path d="M15.6262 7.78772C18.1356 7.78772 20.1774 9.82902 20.1774 12.338C20.1774 14.8474 18.1356 16.8889 15.6262 16.8889C13.1172 16.8889 11.0759 14.8474 11.0759 12.338C11.0759 9.82902 13.1172 7.78772 15.6262 7.78772ZM15.6262 16.2296C17.7721 16.2296 19.518 14.4839 19.518 12.338C19.518 10.1925 17.7721 8.44705 15.6262 8.44705C13.4807 8.44705 11.7353 10.1925 11.7353 12.338C11.7353 14.4839 13.4807 16.2296 15.6262 16.2296Z" fill="#B0BFC6"/>
<path d="M21.4818 15.0111H20.9985C20.8163 15.0111 20.6689 14.8634 20.6689 14.6814V10.2859C20.6689 10.1751 20.6669 10.1501 20.6669 10.067C19.752 8.01954 17.8887 6.65955 15.6263 6.65955C13.2775 6.65955 11.2035 8.07119 10.3422 10.2553C10.3409 10.2586 10.3387 10.2615 10.3373 10.2646C10.3378 10.2716 10.3395 10.2784 10.3395 10.2857V14.4113C10.6226 15.1313 11.0415 15.7766 11.5863 16.3285C11.7142 16.4581 11.7129 16.6667 11.5833 16.7946C11.5191 16.8581 11.4353 16.8898 11.3516 16.8898C11.2666 16.8898 11.1815 16.857 11.1171 16.7917C10.6013 16.2691 10.1874 15.6711 9.88064 15.0109H9.52746C8.13385 15.0109 7.00001 13.8773 7.00001 12.4837C7.00001 11.0898 8.13385 9.956 9.52746 9.956H9.75405C10.7292 7.55119 13.0263 6 15.6265 6C18.2151 6 20.3796 7.57449 21.3627 9.95952C21.3627 9.95952 21.4779 9.9582 21.5007 9.95688C22.8856 9.96699 24.0093 11.0962 24.0093 12.4837C24.0091 13.8775 22.8754 15.0111 21.4818 15.0111ZM9.67998 10.6156H9.52724C8.49714 10.6156 7.65913 11.4536 7.65913 12.4839C7.65913 13.514 8.49714 14.3518 9.52724 14.3518H9.67998V10.6156ZM21.4818 10.6156H21.3282V14.3518H21.4818C22.5119 14.3518 23.3497 13.514 23.3497 12.4839C23.3497 11.4538 22.5117 10.6156 21.4818 10.6156Z" fill="#B0BFC6"/>
</svg>
