<svg width="30" height="30" viewBox="0 0 30 30" fill="none" xmlns="http://www.w3.org/2000/svg">
<circle cx="15" cy="15" r="14.625" stroke="#B0BFC6" stroke-width="0.75"/>
<path d="M10.9768 19.9822C11.0893 19.9224 11.2701 19.8265 11.313 19.8088C12.3141 19.3245 13.4365 19.0526 14.621 19.0526C18.8254 19.0526 22.2452 22.4748 22.2415 26.6799C22.2412 26.8578 22.0923 27 21.9144 27H7.32714C7.1492 27 7.00027 26.8578 7.00005 26.6799C6.99787 23.7941 8.60779 21.2777 10.9768 19.9822ZM17.9878 23.293H11.6641V26.3458H17.9878V23.293ZM11.6641 20.4015V22.6388H17.9878V20.5672C17.9878 20.5579 17.9898 20.5491 17.9906 20.54C17.0081 20.0092 15.8848 19.7068 14.6918 19.7068C13.607 19.7068 12.5802 19.9576 11.6641 20.4015ZM18.642 20.9399V26.3458H21.6505C21.5463 24.1057 20.3779 22.1399 18.642 20.9399ZM11.0099 26.3458V20.7635C9.12634 21.9412 7.84219 23.9921 7.73295 26.3458H11.0099Z" fill="#B0BFC6"/>
<path d="M19.2254 14.1346H19.1216C18.9587 16.4079 17.0627 18.2088 14.7493 18.2088C12.4351 18.2088 10.5382 16.4079 10.3751 14.1346H10.2713C9.8238 14.1346 9.47339 13.6896 9.47339 13.1213C9.47339 12.6913 9.67443 12.3328 9.96598 12.1835C10.0977 10.1599 11.4815 8.44158 13.4412 7.88859C13.6514 7.36852 14.1608 7 14.7552 7C15.3514 7 15.8618 7.3707 16.071 7.89317C18.0221 8.45118 19.399 10.1656 19.5302 12.1835C19.8218 12.3328 20.0228 12.6915 20.0228 13.1213C20.0233 13.6896 19.6726 14.1346 19.2254 14.1346ZM14.7493 17.5547C16.7018 17.5547 18.3063 16.047 18.4674 14.1346H11.0294C11.1904 16.047 12.7957 17.5547 14.7493 17.5547ZM10.27 13.4805H19.2267C19.2601 13.4755 19.3706 13.3531 19.3706 13.1211C19.3706 12.9739 19.3263 12.876 19.2851 12.8193C19.2635 12.8239 19.2413 12.8263 19.2182 12.8263H10.2785C10.2556 12.8263 10.2331 12.8239 10.2117 12.8193C10.1705 12.8762 10.1263 12.9739 10.1263 13.1211C10.1263 13.3531 10.2368 13.4752 10.27 13.4805ZM10.6904 12.1721H13.4087V8.60665C11.8829 9.15616 10.8171 10.5458 10.6904 12.1721ZM14.0629 8.43461V12.1721H15.5893V8.41716C15.5893 7.91606 15.1034 7.52617 14.5786 7.69321C14.2635 7.79351 14.0629 8.10403 14.0629 8.43461ZM16.2434 8.6121V12.1721H18.9474C18.8211 10.5511 17.7613 9.16532 16.2434 8.6121Z" fill="#B0BFC6"/>
</svg>
