<svg width="30" height="30" viewBox="0 0 30 30" fill="none" xmlns="http://www.w3.org/2000/svg">
<circle cx="15" cy="15" r="14.625" stroke="#B0BFC6" stroke-width="0.75"/>
<path d="M14.7363 17.9099C19.5548 17.9099 23.4749 21.8297 23.4749 26.648C23.4749 26.8405 23.3186 26.9967 23.1261 26.9967H9.43301C9.42255 26.9977 9.41232 27 9.40162 27C9.39093 27 9.3807 26.9977 9.37024 26.9967H6.34874C6.15624 26.9967 6.00002 26.8405 6.00002 26.648C5.99979 21.8297 9.91888 17.9099 14.7363 17.9099ZM19.8715 20.4679C19.1215 19.8437 18.2571 19.3534 17.3142 19.0332V22.4634C17.3142 22.6559 17.158 22.8122 16.9655 22.8122H12.5484C12.3559 22.8122 12.1997 22.6559 12.1997 22.4634V19.0198C11.3033 19.3187 10.4759 19.77 9.75034 20.3453V26.2993H19.8715V20.4679ZM12.8971 18.8217V22.1147H16.6168V18.831C16.0133 18.6857 15.3837 18.6073 14.7363 18.6073C14.1035 18.6073 13.4881 18.6829 12.8971 18.8217ZM20.5689 21.1186V26.2993H22.77C22.684 24.297 21.8624 22.482 20.5689 21.1186ZM9.05291 26.2993V20.9698C7.67571 22.3488 6.7937 24.2224 6.70466 26.2993H9.05291Z" fill="#B0BFC6"/>
<path d="M14.8834 17.0416C12.1146 17.0416 9.86169 14.7896 9.86169 12.0217C9.86169 9.25294 12.1144 7 14.8834 7C17.6525 7 19.9054 9.2527 19.9054 12.0217C19.9054 14.7896 17.6525 17.0416 14.8834 17.0416ZM14.8834 7.69743C13.0334 7.69743 11.4558 8.86726 10.8395 10.5041C11.512 10.2103 12.6851 9.60049 13.4265 9.19644C13.5246 9.14321 13.642 9.13972 13.7424 9.18761C13.7596 9.19575 15.476 10.0073 16.5921 10.4723L16.6981 10.5167C17.5446 10.8705 18.0886 11.0967 19.1292 11.2109C18.7481 9.21318 16.9906 7.69743 14.8834 7.69743ZM19.2026 11.9199C17.9635 11.8009 17.3428 11.5424 16.4292 11.1604L16.3234 11.1165C15.3946 10.7294 14.0609 10.1078 13.6043 9.89364C13.0278 10.2047 11.2294 11.1613 10.6198 11.3313C10.5833 11.5568 10.5594 11.7862 10.5594 12.022C10.5594 14.4053 12.4991 16.3444 14.8837 16.3444C17.2682 16.3444 19.2082 14.4053 19.2082 12.022C19.208 11.9873 19.2035 11.9541 19.2026 11.9199Z" fill="#B0BFC6"/>
</svg>
