<svg width="40" height="50" viewBox="0 0 40 50" fill="none" xmlns="http://www.w3.org/2000/svg">
<path fill-rule="evenodd" clip-rule="evenodd" d="M30.3571 5.35714H35.7143C36.6615 5.35714 37.5699 5.73342 38.2397 6.40319C38.9094 7.07296 39.2857 7.98137 39.2857 8.92857V46.4286C39.2857 47.3758 38.9094 48.2842 38.2397 48.954C37.5699 49.6237 36.6615 50 35.7143 50H3.57143C2.62423 50 1.71582 49.6237 1.04605 48.954C0.376274 48.2842 0 47.3758 0 46.4286V8.92857C0 7.98137 0.376274 7.07296 1.04605 6.40319C1.71582 5.73342 2.62423 5.35714 3.57143 5.35714H8.92857V3.57143C8.92857 2.62423 9.30485 1.71582 9.97462 1.04605C10.6444 0.376274 11.5528 0 12.5 0H26.7857C27.7329 0 28.6413 0.376274 29.3111 1.04605C29.9809 1.71582 30.3571 2.62423 30.3571 3.57143V5.35714ZM26.7857 3.57143H12.5V10.7143H26.7857V3.57143ZM3.57143 46.4286H35.7143V8.92857H30.3571V14.2857H8.92857V8.92857H3.57143V46.4286ZM30.3573 19.6429H8.92868V23.2143H30.3573V19.6429ZM23.2144 28.5714H8.92868V32.1428H23.2144V28.5714ZM8.92868 37.5H17.8573V41.0714H8.92868V37.5Z" fill="#478ECC"/>
</svg>
